# xmcd
#
# Track frame offsets:
#	150
#	13030
#	26572
#	39193
#	52350
#	65767
#	79765
#	93643
#	106647
#	134163
#	161114
#	173372
#	186087
#	199853
#	211267
#	223737
#	236060
#	247762
#	261500
#	271857
#	284736
#	295746
#	307297
#	319204
#	331535
#	343484
#	355571
#
# Disc length: 4894 seconds
#
# Revision: 1
# Processed by: cddbd v1.5.2PL0 Copyright (c) Steve Scherf et al.
# Submitted via: audiograbber 1.83.01
#
DISCID=a5131c1b
DTITLE=Various Artist - Acoustic Blues - The Roots of it all Vol 2 - CD1: The 1940s
DYEAR=2014
DGENRE=Blues
TTITLE0=Joe Williams - Crawlin' King Snake
TTITLE1=Robert Petway - Catfish Blues
TTITLE2=Brownie McGhee (Blind Boy Fuller #2) - Step It Up And Go no.2
TTITLE3=Tony Hollins - Cross Cut Saw Blues
TTITLE4=Robert Lockwood - Black Spider Blues
TTITLE5=McKinley Morganfield (Muddy Waters) - I Be's Troubled
TTITLE6=Arthur "Big Boy" Crudup - If I Get Lucky
TTITLE7=Buddy Moss - Unfinished Business
TTITLE8=William Brown - Mississippi Blues
TTITLE9=David Edwards - Water Coast Blues
TTITLE10=Gabriel Brown - Stick With Me
TTITLE11=Johnny Shines - Evil-Hearted Woman Blues
TTITLE12="Lightnin" Hopkins - Katie Mae Blues
TTITLE13=Josh White - Evil Hearted Man
TTITLE14=Othum Brown - Little Walter J. - Ora Nelle Blues
TTITLE15=Johnny Young - Money Taking Woman
TTITLE16=Little Boy Fuller (Richard Trice) - Blood Red River Blues
TTITLE17=The Back Porch Boys - Sweet Woman Blues
TTITLE18=Stick McGhee and His Buddy - Drinkin' Wine Spo-Dee-O-Dee
TTITLE19=Frankie Lee Sims and His Guitar Trio - Single Man Blues
TTITLE20=K.C. Douglas Trio - Mercury Boogie
TTITLE21=Lowell Fulson - The Blues Is Killing Me
TTITLE22=Alabama Slim - Boar Hog Blues
TTITLE23=Sylvester Cotton and His Guitar - Ugly Woman Blues
TTITLE24=Pine Top Slim and His Guitar - Applejack Boogie
TTITLE25=Willie Lane (Little Brother) - Prowlin' Groundhog
TTITLE26=Dan Pickett - Ride To A Funeral In A V8
EXTD=
EXTT0=
EXTT1=
EXTT2=
EXTT3=
EXTT4=
EXTT5=
EXTT6=
EXTT7=
EXTT8=
EXTT9=
EXTT10=
EXTT11=
EXTT12=
EXTT13=
EXTT14=
EXTT15=
EXTT16=
EXTT17=
EXTT18=
EXTT19=
EXTT20=
EXTT21=
EXTT22=
EXTT23=
EXTT24=
EXTT25=
EXTT26=
PLAYORDER=
